<svg id="Layer_1" data-name="Layer 1" xmlns="http://www.w3.org/2000/svg" viewBox="0 0 66 66"><title>Icons for JMasar UI v02</title><path d="M33,26.40337a9.9,9.9,0,1,0,9.9,9.9,9.90309,9.90309,0,0,0-9.9-9.9ZM59.4,15H51.33062a2.941,2.941,0,0,1-2.607-1.879L46.97613,7.87839A2.94008,2.94008,0,0,0,44.37,6H19.451a2.13932,2.13932,0,0,0-1.89535,1.36467l-2.09545,6.26575A2.147,2.147,0,0,1,13.55807,15H4.8107A4.82485,4.82485,0,0,0,0,19.8107V53.4A6.6194,6.6194,0,0,0,6.6,60H59.4A6.6194,6.6194,0,0,0,66,53.4V21.6A6.6194,6.6194,0,0,0,59.4,15ZM33,52.80337a16.5,16.5,0,1,1,16.5-16.5A16.50084,16.50084,0,0,1,33,52.80337Zm25.56207-25.74a4.25044,4.25044,0,1,1,4.25043-4.25044A4.24939,4.24939,0,0,1,58.56207,27.06337Z"/></svg>