<svg id="Layer_1" data-name="Layer 1" xmlns="http://www.w3.org/2000/svg" viewBox="0 0 66 66"><defs><style>.cls-1{fill:#dbb100;}</style></defs><title>Icons for JMasar UI v02</title><path class="cls-1" d="M47,66V56.09491a3.72367,3.72367,0,0,1,3.72742-3.72743l7.677-.22212Z"/><path class="cls-1" d="M52.90625,0h-38.302A6.60425,6.60425,0,0,0,8,6.60425v52.7915A6.60425,6.60425,0,0,0,14.60425,66H41a3,3,0,0,0,3-3V54.60425A6.60425,6.60425,0,0,1,50.60425,48H56a3.00015,3.00015,0,0,0,3-3L58.90625,6A6.3858,6.3858,0,0,0,52.90625,0ZM23,39H17V33h6Zm0-12H17V21h6Zm0-12H17V9h6ZM44,39H26V36H44Zm0-12H26V24H44Zm0-12H26V12H44Z"/></svg>